<svg width="1512" height="576" viewBox="0 0 1512 576" fill="none" xmlns="http://www.w3.org/2000/svg">
<g clip-path="url(#clip0_31_296)">
<rect width="1512" height="576" fill="#FF4655"/>
<g opacity="0.25">
<rect x="27.4995" y="331.027" width="24.3571" height="2.08193" fill="white"/>
<rect x="6.28516" y="339.354" width="9.42857" height="7.63373" fill="white"/>
<rect x="6.28516" y="353.234" width="3.92857" height="3.46988" fill="white"/>
<rect x="6.28516" y="358.091" width="3.92857" height="3.46988" fill="white"/>
<rect x="5.50049" y="417.079" width="10.2143" height="8.32771" fill="white"/>
<rect x="7.85693" y="523.952" width="88" height="2.08193" fill="white"/>
<rect x="162.643" y="339.354" width="8.64285" height="7.63373" fill="white"/>
<rect x="161.857" y="353.928" width="3.14286" height="2.7759" fill="white"/>
<rect x="161.857" y="358.091" width="3.14286" height="2.7759" fill="white"/>
<rect x="161.071" y="-6.10352e-05" width="8.64285" height="7.63373" fill="white"/>
<rect x="160.286" y="13.8794" width="3.92857" height="3.46988" fill="white"/>
<rect x="160.286" y="18.0435" width="3.92857" height="3.46988" fill="white"/>
<rect x="163.428" y="24.983" width="15.7143" height="2.08193" fill="white"/>
<rect x="399.143" y="102.708" width="3.14286" height="2.7759" fill="white"/>
<rect x="399.143" y="107.566" width="3.14286" height="2.7759" fill="white"/>
<rect x="411.714" y="107.566" width="3.14286" height="2.7759" fill="white"/>
<rect x="411.714" y="102.708" width="3.14286" height="2.7759" fill="white"/>
<rect x="715" y="24.983" width="14.9286" height="2.08193" fill="white"/>
<rect x="715" y="102.708" width="3.14286" height="2.7759" fill="white"/>
<rect x="634.857" y="572.53" width="3.92857" height="3.46988" fill="white"/>
<rect x="711.858" y="573.224" width="3.14286" height="2.7759" fill="white"/>
<rect x="711.858" y="532.973" width="3.14286" height="2.7759" fill="white"/>
<rect x="873.714" y="560.732" width="1.57143" height="1.38795" fill="white"/>
<rect x="873.714" y="574.612" width="1.57143" height="1.38795" fill="white"/>
<rect x="899.643" y="574.612" width="1.57143" height="1.38795" fill="white"/>
<rect x="899.643" y="560.732" width="1.57143" height="1.38795" fill="white"/>
<rect x="786.5" y="496.193" width="25.1429" height="2.08193" fill="white"/>
<rect x="959.357" y="523.258" width="88" height="2.08193" fill="white"/>
<rect x="953.071" y="496.193" width="25.1429" height="2.08193" fill="white"/>
<rect x="874.5" y="417.079" width="8.64285" height="7.63373" fill="white"/>
<rect x="956.214" y="417.079" width="8.64285" height="7.63373" fill="white"/>
<rect x="954.643" y="337.966" width="8.64285" height="7.63373" fill="white"/>
<rect x="1049.71" y="415.691" width="1.57143" height="1.38795" fill="white"/>
<rect x="1049.71" y="401.812" width="1.57143" height="1.38795" fill="white"/>
<rect x="1076.43" y="401.812" width="1.57143" height="1.38795" fill="white"/>
<rect x="1076.43" y="415.691" width="1.57143" height="1.38795" fill="white"/>
<rect x="954.643" y="352.54" width="3.14286" height="2.7759" fill="white"/>
<rect x="954.643" y="356.704" width="3.14286" height="2.7759" fill="white"/>
<rect x="952.286" y="324.781" width="87.2143" height="2.08193" fill="white"/>
<rect x="879.214" y="67.3156" width="8.64285" height="7.63373" fill="white"/>
<rect x="953.071" y="102.708" width="3.14286" height="2.7759" fill="white"/>
<rect x="953.071" y="107.566" width="3.14286" height="2.7759" fill="white"/>
<rect x="965.643" y="107.566" width="3.14286" height="2.7759" fill="white"/>
<rect x="965.643" y="102.708" width="3.14286" height="2.7759" fill="white"/>
<rect x="955.429" y="18.7372" width="3.14286" height="2.7759" fill="white"/>
<rect x="955.429" y="14.5734" width="3.14286" height="2.7759" fill="white"/>
<rect x="955.429" y="-6.10352e-05" width="8.64285" height="7.63373" fill="white"/>
<rect y="102.708" width="3.14286" height="2.7759" fill="white"/>
<rect x="12.5723" y="102.708" width="3.14286" height="2.7759" fill="white"/>
<rect x="12.5723" y="107.566" width="3.14286" height="2.7759" fill="white"/>
<rect y="107.566" width="3.14286" height="2.7759" fill="white"/>
<rect width="32" height="32" transform="translate(128 504)" fill="white"/>
<path d="M1059.03 408.239C1058.97 408.284 1058.89 408.303 1058.78 408.297C1058.67 408.29 1058.57 408.259 1058.49 408.202C1058.4 408.146 1058.36 408.064 1058.37 407.956C1058.4 407.761 1058.53 407.563 1058.78 407.363C1059.04 407.164 1059.34 406.978 1059.7 406.807C1060.05 406.635 1060.4 406.494 1060.75 406.384C1061.09 406.273 1061.38 406.209 1061.6 406.191C1061.81 406.175 1062 406.193 1062.15 406.247C1062.31 406.3 1062.41 406.394 1062.47 406.529C1062.52 406.665 1062.51 406.847 1062.43 407.076C1062.33 407.351 1062.16 407.609 1061.93 407.849C1061.7 408.089 1061.45 408.301 1061.17 408.483C1060.89 408.665 1060.63 408.807 1060.38 408.911C1060.37 408.912 1060.37 408.914 1060.36 408.915C1060.33 408.925 1060.32 408.934 1060.31 408.942C1060.31 408.948 1060.33 408.961 1060.35 408.978C1060.44 409.04 1060.54 409.115 1060.66 409.206C1060.81 409.323 1060.97 409.444 1061.14 409.568C1061.32 409.692 1061.49 409.798 1061.65 409.885C1061.82 409.972 1061.97 410.018 1062.1 410.023C1062.12 410.023 1062.14 410.029 1062.15 410.042C1062.16 410.055 1062.16 410.068 1062.15 410.081C1062.15 410.094 1062.13 410.1 1062.1 410.1C1061.95 410.095 1061.78 410.048 1061.6 409.957C1061.41 409.867 1061.22 409.758 1061.04 409.629C1060.85 409.501 1060.67 409.378 1060.51 409.259C1060.41 409.183 1060.32 409.117 1060.23 409.06C1060.22 409.048 1060.2 409.037 1060.19 409.029C1060.18 409.018 1060.17 409.01 1060.16 409.005C1060.15 409.002 1060.14 409 1060.13 409C1060.12 409.002 1060.11 409.005 1060.09 409.01C1060.08 409.013 1060.06 409.016 1060.05 409.019C1059.91 409.045 1059.82 409.035 1059.78 408.99C1059.74 408.945 1059.73 408.894 1059.75 408.838C1059.77 408.78 1059.81 408.747 1059.87 408.739C1059.91 408.739 1059.94 408.747 1059.98 408.763C1060.02 408.778 1060.06 408.794 1060.09 408.811C1060.1 408.818 1060.11 408.823 1060.11 408.826C1060.13 408.836 1060.14 408.842 1060.15 408.845C1060.16 408.849 1060.17 408.849 1060.17 408.848C1060.18 408.846 1060.19 408.842 1060.21 408.836C1060.22 408.832 1060.23 408.827 1060.25 408.819C1060.57 408.698 1060.89 408.525 1061.2 408.299C1061.52 408.072 1061.79 407.824 1062 407.557C1062.17 407.344 1062.28 407.14 1062.34 406.945C1062.4 406.749 1062.38 406.591 1062.27 406.471C1062.16 406.352 1061.94 406.302 1061.61 406.321C1061.4 406.339 1061.13 406.402 1060.8 406.51C1060.46 406.616 1060.12 406.752 1059.77 406.916C1059.42 407.079 1059.13 407.253 1058.88 407.438C1058.63 407.624 1058.5 407.803 1058.47 407.977C1058.47 408.018 1058.48 408.052 1058.52 408.081C1058.55 408.11 1058.6 408.133 1058.64 408.149C1058.69 408.164 1058.74 408.169 1058.78 408.166C1058.82 408.163 1058.84 408.15 1058.84 408.127C1058.85 408.11 1058.86 408.098 1058.87 408.091C1058.88 408.085 1058.9 408.082 1058.91 408.084C1058.94 408.089 1058.97 408.098 1058.99 408.113C1059.02 408.126 1059.04 408.143 1059.05 408.164C1059.06 408.185 1059.05 408.21 1059.03 408.239ZM1059.93 408.906C1059.94 408.906 1059.94 408.906 1059.95 408.906C1059.96 408.906 1059.96 408.906 1059.97 408.906C1059.97 408.906 1059.98 408.905 1059.97 408.903C1059.97 408.9 1059.97 408.896 1059.96 408.891C1059.95 408.89 1059.95 408.887 1059.94 408.884C1059.93 408.878 1059.92 408.872 1059.9 408.867C1059.89 408.861 1059.88 408.858 1059.87 408.86C1059.86 408.86 1059.86 408.868 1059.86 408.884C1059.87 408.89 1059.87 408.895 1059.88 408.899C1059.89 408.902 1059.9 408.904 1059.91 408.906C1059.92 408.906 1059.92 408.906 1059.93 408.906ZM1059.74 408.04C1059.75 408.019 1059.76 407.998 1059.78 407.975C1059.86 407.833 1059.95 407.687 1060.03 407.537C1060.03 407.523 1060.04 407.512 1060.04 407.504C1060.04 407.496 1060.03 407.49 1060.02 407.487C1059.99 407.477 1059.98 407.463 1059.98 407.446C1059.98 407.426 1059.98 407.405 1060 407.38C1060.01 407.351 1060.04 407.313 1060.08 407.267C1060.13 407.22 1060.17 407.183 1060.22 407.156C1060.27 407.126 1060.31 407.126 1060.34 407.153C1060.35 407.166 1060.36 407.183 1060.36 407.204C1060.36 407.225 1060.36 407.243 1060.35 407.257C1060.26 407.417 1060.17 407.574 1060.07 407.728C1060.05 407.759 1060.03 407.79 1060.01 407.823C1059.98 407.876 1059.92 407.972 1059.83 408.11C1059.7 408.322 1059.54 408.573 1059.35 408.865C1059.17 409.156 1059.01 409.423 1058.87 409.665C1058.72 409.908 1058.65 410.064 1058.63 410.131C1058.63 410.148 1058.62 410.163 1058.62 410.177C1058.61 410.192 1058.59 410.198 1058.57 410.197C1058.56 410.193 1058.55 410.184 1058.55 410.168C1058.54 410.152 1058.55 410.135 1058.55 410.119C1058.55 410.114 1058.55 410.11 1058.55 410.107C1058.57 410.025 1058.63 409.881 1058.75 409.675C1058.86 409.468 1058.99 409.244 1059.14 409.002C1059.29 408.761 1059.42 408.545 1059.54 408.355C1059.63 408.213 1059.7 408.108 1059.74 408.04ZM1060.83 407.608C1061.02 407.406 1061.25 407.222 1061.53 407.054C1061.81 406.886 1062.1 406.74 1062.41 406.614C1062.71 406.487 1063 406.385 1063.26 406.309C1063.28 406.303 1063.3 406.297 1063.32 406.292C1063.33 406.289 1063.35 406.286 1063.35 406.283C1063.36 406.278 1063.37 406.272 1063.38 406.266C1063.38 406.258 1063.39 406.245 1063.41 406.227C1063.41 406.218 1063.42 406.205 1063.43 406.191C1063.45 406.172 1063.47 406.151 1063.5 406.128C1063.53 406.106 1063.55 406.093 1063.58 406.092C1063.6 406.09 1063.62 406.114 1063.62 406.162C1063.62 406.165 1063.62 406.168 1063.62 406.172C1063.62 406.191 1063.62 406.202 1063.62 406.205C1063.63 406.209 1063.64 406.208 1063.65 406.203C1063.66 406.201 1063.66 406.199 1063.68 406.196C1064.14 406.091 1064.45 406.081 1064.6 406.167C1064.75 406.252 1064.78 406.398 1064.67 406.604C1064.57 406.811 1064.36 407.044 1064.05 407.305C1064.05 407.307 1064.04 407.309 1064.04 407.313C1064.02 407.33 1064 407.342 1064 407.346C1064.01 407.351 1064.03 407.351 1064.07 407.344C1064.2 407.323 1064.33 407.321 1064.47 407.337C1064.61 407.353 1064.73 407.4 1064.82 407.479C1064.91 407.557 1064.95 407.678 1064.93 407.842C1064.88 408.098 1064.73 408.356 1064.47 408.616C1064.21 408.874 1063.9 409.117 1063.54 409.346C1063.18 409.576 1062.82 409.775 1062.47 409.943C1062.12 410.112 1061.83 410.235 1061.59 410.313C1061.56 410.321 1061.54 410.317 1061.52 410.301C1061.51 410.285 1061.5 410.264 1061.5 410.238C1061.5 410.214 1061.51 410.193 1061.53 410.175C1061.57 410.133 1061.62 410.1 1061.68 410.076C1061.7 410.066 1061.72 410.065 1061.74 410.071C1061.76 410.079 1061.77 410.091 1061.78 410.107C1061.99 410.028 1062.25 409.908 1062.57 409.747C1062.89 409.586 1063.22 409.398 1063.54 409.184C1063.87 408.971 1064.15 408.748 1064.38 408.514C1064.62 408.279 1064.76 408.048 1064.8 407.823C1064.82 407.702 1064.79 407.615 1064.72 407.562C1064.65 407.507 1064.56 407.475 1064.45 407.467C1064.34 407.458 1064.23 407.461 1064.11 407.477C1064 407.492 1063.91 407.508 1063.84 407.528C1063.8 407.537 1063.76 407.548 1063.74 407.559C1063.72 407.571 1063.7 407.586 1063.68 407.605C1063.67 407.613 1063.65 407.623 1063.64 407.634C1063.62 407.649 1063.56 407.688 1063.47 407.753C1063.37 407.817 1063.27 407.882 1063.15 407.946C1063.04 408.009 1062.94 408.048 1062.86 408.062C1062.79 408.075 1062.76 408.038 1062.77 407.951C1062.79 407.901 1062.85 407.843 1062.96 407.777C1063.07 407.709 1063.18 407.647 1063.31 407.591C1063.43 407.533 1063.52 407.492 1063.58 407.47C1063.59 407.467 1063.61 407.463 1063.61 407.46C1063.64 407.449 1063.66 407.438 1063.69 407.429C1063.71 407.419 1063.73 407.404 1063.76 407.383C1063.96 407.23 1064.14 407.073 1064.3 406.911C1064.46 406.749 1064.55 406.607 1064.59 406.486C1064.63 406.363 1064.58 406.284 1064.44 406.247C1064.3 406.209 1064.04 406.239 1063.65 406.336C1063.64 406.339 1063.62 406.342 1063.61 406.346C1063.58 406.35 1063.56 406.358 1063.54 406.367C1063.52 406.377 1063.5 406.396 1063.49 406.423C1063.27 406.816 1063.04 407.199 1062.79 407.571C1062.59 407.871 1062.4 408.176 1062.22 408.488C1062.2 408.518 1062.19 408.545 1062.19 408.567C1062.18 408.59 1062.18 408.61 1062.18 408.628C1062.18 408.641 1062.18 408.654 1062.18 408.666C1062.17 408.678 1062.17 408.689 1062.16 408.7C1062.15 408.715 1062.13 408.731 1062.11 408.749C1062.09 408.766 1062.06 408.779 1062.04 408.787C1062.01 408.794 1061.99 408.789 1061.97 408.773C1061.96 408.758 1061.95 408.743 1061.95 408.727C1061.95 408.711 1061.96 408.695 1061.97 408.679C1062.42 407.911 1062.86 407.187 1063.31 406.505C1063.32 406.478 1063.33 406.458 1063.32 406.447C1063.32 406.434 1063.3 406.434 1063.25 406.447C1062.79 406.583 1062.34 406.764 1061.92 406.991C1061.84 407.035 1061.72 407.107 1061.56 407.209C1061.4 407.309 1061.24 407.422 1061.09 407.55C1060.94 407.675 1060.83 407.798 1060.78 407.917C1060.73 408.036 1060.77 408.136 1060.91 408.217C1060.94 408.233 1060.95 408.249 1060.95 408.265C1060.95 408.28 1060.94 408.29 1060.92 408.297C1060.91 408.301 1060.89 408.297 1060.86 408.284C1060.7 408.193 1060.63 408.087 1060.64 407.968C1060.66 407.849 1060.72 407.728 1060.83 407.608Z" fill="white"/>
</g>
<g opacity="0.25">
<rect width="4.32143" height="7.63373" transform="matrix(-1 0 0 1 1508.68 389.354)" fill="white"/>
<rect width="1.57143" height="2.7759" transform="matrix(-1 0 0 1 1509.07 403.928)" fill="white"/>
<rect width="1.57143" height="2.7759" transform="matrix(-1 0 0 1 1509.07 408.091)" fill="white"/>
<rect width="4.32143" height="7.63373" transform="matrix(-1 0 0 1 1509.46 49.9999)" fill="white"/>
<rect width="1.96428" height="3.46988" transform="matrix(-1 0 0 1 1509.86 63.8794)" fill="white"/>
<rect width="1.96428" height="3.46988" transform="matrix(-1 0 0 1 1509.86 68.0435)" fill="white"/>
<rect width="7.85714" height="2.08193" transform="matrix(-1 0 0 1 1508.29 74.983)" fill="white"/>
<rect width="1.57143" height="2.7759" transform="matrix(-1 0 0 1 1390.43 152.708)" fill="white"/>
<rect width="1.57143" height="2.7759" transform="matrix(-1 0 0 1 1390.43 157.566)" fill="white"/>
<rect width="1.57143" height="2.7759" transform="matrix(-1 0 0 1 1384.14 157.566)" fill="white"/>
<rect width="1.57143" height="2.7759" transform="matrix(-1 0 0 1 1384.14 152.708)" fill="white"/>
<rect width="7.46428" height="2.08193" transform="matrix(-1 0 0 1 1232.5 74.983)" fill="white"/>
<rect width="1.57143" height="2.7759" transform="matrix(-1 0 0 1 1232.5 152.708)" fill="white"/>
<rect width="12.5714" height="2.08193" transform="matrix(-1 0 0 1 1196.75 546.193)" fill="white"/>
<rect width="44" height="2.08193" transform="matrix(-1 0 0 1 1110.32 573.258)" fill="white"/>
<rect width="12.5714" height="2.08193" transform="matrix(-1 0 0 1 1113.46 546.193)" fill="white"/>
<rect width="4.32143" height="7.63373" transform="matrix(-1 0 0 1 1152.75 467.079)" fill="white"/>
<rect width="4.32143" height="7.63373" transform="matrix(-1 0 0 1 1111.89 467.079)" fill="white"/>
<rect width="4.32143" height="7.63373" transform="matrix(-1 0 0 1 1112.68 387.966)" fill="white"/>
<rect width="0.785714" height="1.38795" transform="matrix(-1 0 0 1 1065.14 465.691)" fill="white"/>
<rect width="0.785714" height="1.38795" transform="matrix(-1 0 0 1 1065.14 451.812)" fill="white"/>
<rect width="0.785714" height="1.38795" transform="matrix(-1 0 0 1 1051.79 451.812)" fill="white"/>
<rect width="0.785714" height="1.38795" transform="matrix(-1 0 0 1 1051.79 465.691)" fill="white"/>
<rect width="1.57143" height="2.7759" transform="matrix(-1 0 0 1 1112.68 402.54)" fill="white"/>
<rect width="1.57143" height="2.7759" transform="matrix(-1 0 0 1 1112.68 406.704)" fill="white"/>
<rect width="43.6071" height="2.08193" transform="matrix(-1 0 0 1 1113.86 374.781)" fill="white"/>
<rect width="4.32143" height="7.63373" transform="matrix(-1 0 0 1 1150.39 117.316)" fill="white"/>
<rect width="1.57143" height="2.7759" transform="matrix(-1 0 0 1 1113.46 152.708)" fill="white"/>
<rect width="1.57143" height="2.7759" transform="matrix(-1 0 0 1 1113.46 157.566)" fill="white"/>
<rect width="1.57143" height="2.7759" transform="matrix(-1 0 0 1 1107.18 157.566)" fill="white"/>
<rect width="1.57143" height="2.7759" transform="matrix(-1 0 0 1 1107.18 152.708)" fill="white"/>
<rect width="1.57143" height="2.7759" transform="matrix(-1 0 0 1 1112.29 68.7372)" fill="white"/>
<rect width="1.57143" height="2.7759" transform="matrix(-1 0 0 1 1112.29 64.5734)" fill="white"/>
<rect width="4.32143" height="7.63373" transform="matrix(-1 0 0 1 1112.29 49.9999)" fill="white"/>
<rect width="33" height="58.294" transform="matrix(-1 0 0 1 1508.68 519.128)" fill="white"/>
<path d="M1060.15 458.239C1060.21 458.284 1060.29 458.303 1060.4 458.297C1060.51 458.29 1060.6 458.259 1060.69 458.202C1060.78 458.146 1060.82 458.064 1060.81 457.956C1060.78 457.761 1060.64 457.563 1060.39 457.363C1060.14 457.164 1059.84 456.978 1059.48 456.807C1059.13 456.635 1058.78 456.494 1058.43 456.384C1058.09 456.273 1057.8 456.209 1057.58 456.191C1057.36 456.175 1057.18 456.193 1057.02 456.247C1056.87 456.3 1056.76 456.394 1056.71 456.529C1056.65 456.665 1056.67 456.847 1056.75 457.076C1056.85 457.351 1057.02 457.609 1057.25 457.849C1057.48 458.089 1057.73 458.301 1058.01 458.483C1058.28 458.665 1058.55 458.807 1058.8 458.911C1058.81 458.912 1058.81 458.914 1058.82 458.915C1058.85 458.925 1058.86 458.934 1058.86 458.942C1058.87 458.948 1058.85 458.961 1058.82 458.978C1058.74 459.04 1058.64 459.115 1058.52 459.206C1058.37 459.323 1058.21 459.444 1058.04 459.568C1057.86 459.692 1057.69 459.798 1057.53 459.885C1057.36 459.972 1057.21 460.018 1057.08 460.023C1057.05 460.023 1057.04 460.029 1057.03 460.042C1057.02 460.055 1057.02 460.068 1057.02 460.081C1057.03 460.094 1057.05 460.1 1057.08 460.1C1057.23 460.095 1057.4 460.048 1057.58 459.957C1057.77 459.867 1057.95 459.758 1058.14 459.629C1058.33 459.501 1058.51 459.378 1058.67 459.259C1058.77 459.183 1058.86 459.117 1058.94 459.06C1058.96 459.048 1058.98 459.037 1058.99 459.029C1059 459.018 1059.01 459.01 1059.02 459.005C1059.03 459.002 1059.04 459 1059.05 459C1059.06 459.002 1059.07 459.005 1059.09 459.01C1059.1 459.013 1059.11 459.016 1059.13 459.019C1059.27 459.045 1059.36 459.035 1059.4 458.99C1059.44 458.945 1059.45 458.894 1059.43 458.838C1059.41 458.78 1059.37 458.747 1059.31 458.739C1059.27 458.739 1059.23 458.747 1059.19 458.763C1059.15 458.778 1059.12 458.794 1059.09 458.811C1059.08 458.818 1059.07 458.823 1059.06 458.826C1059.05 458.836 1059.04 458.842 1059.03 458.845C1059.02 458.849 1059.01 458.849 1059 458.848C1059 458.846 1058.98 458.842 1058.97 458.836C1058.96 458.832 1058.95 458.827 1058.93 458.819C1058.61 458.698 1058.29 458.525 1057.97 458.299C1057.65 458.072 1057.39 457.824 1057.17 457.557C1057.01 457.344 1056.89 457.14 1056.84 456.945C1056.78 456.749 1056.8 456.591 1056.91 456.471C1057.02 456.352 1057.24 456.302 1057.57 456.321C1057.78 456.339 1058.05 456.402 1058.38 456.51C1058.72 456.616 1059.06 456.752 1059.41 456.916C1059.76 457.079 1060.05 457.253 1060.3 457.438C1060.54 457.624 1060.68 457.803 1060.71 457.977C1060.71 458.018 1060.7 458.052 1060.66 458.081C1060.62 458.11 1060.58 458.133 1060.53 458.149C1060.48 458.164 1060.44 458.169 1060.4 458.166C1060.36 458.163 1060.34 458.15 1060.34 458.127C1060.33 458.11 1060.32 458.098 1060.31 458.091C1060.29 458.085 1060.28 458.082 1060.26 458.084C1060.24 458.089 1060.21 458.098 1060.19 458.113C1060.16 458.126 1060.14 458.143 1060.13 458.164C1060.12 458.185 1060.13 458.21 1060.15 458.239ZM1059.25 458.906C1059.24 458.906 1059.24 458.906 1059.23 458.906C1059.22 458.906 1059.21 458.906 1059.21 458.906C1059.2 458.906 1059.2 458.905 1059.2 458.903C1059.21 458.9 1059.21 458.896 1059.22 458.891C1059.22 458.89 1059.23 458.887 1059.24 458.884C1059.25 458.878 1059.26 458.872 1059.27 458.867C1059.29 458.861 1059.3 458.858 1059.31 458.86C1059.32 458.86 1059.32 458.868 1059.32 458.884C1059.31 458.89 1059.31 458.895 1059.3 458.899C1059.29 458.902 1059.28 458.904 1059.27 458.906C1059.26 458.906 1059.26 458.906 1059.25 458.906ZM1059.44 458.04C1059.43 458.019 1059.42 457.998 1059.4 457.975C1059.31 457.833 1059.23 457.687 1059.15 457.537C1059.14 457.523 1059.14 457.512 1059.14 457.504C1059.14 457.496 1059.15 457.49 1059.16 457.487C1059.19 457.477 1059.2 457.463 1059.2 457.446C1059.2 457.426 1059.19 457.405 1059.18 457.38C1059.16 457.351 1059.14 457.313 1059.09 457.267C1059.05 457.22 1059.01 457.183 1058.96 457.156C1058.91 457.126 1058.87 457.126 1058.84 457.153C1058.82 457.166 1058.82 457.183 1058.82 457.204C1058.82 457.225 1058.82 457.243 1058.83 457.257C1058.92 457.417 1059.01 457.574 1059.11 457.728C1059.13 457.759 1059.15 457.79 1059.17 457.823C1059.2 457.876 1059.26 457.972 1059.35 458.11C1059.48 458.322 1059.64 458.573 1059.82 458.865C1060.01 459.156 1060.17 459.423 1060.31 459.665C1060.45 459.908 1060.53 460.064 1060.55 460.131C1060.55 460.148 1060.56 460.163 1060.56 460.177C1060.57 460.192 1060.59 460.198 1060.61 460.197C1060.62 460.193 1060.63 460.184 1060.63 460.168C1060.63 460.152 1060.63 460.135 1060.63 460.119C1060.63 460.114 1060.63 460.11 1060.63 460.107C1060.61 460.025 1060.55 459.881 1060.43 459.675C1060.32 459.468 1060.19 459.244 1060.04 459.002C1059.89 458.761 1059.76 458.545 1059.64 458.355C1059.55 458.213 1059.48 458.108 1059.44 458.04ZM1058.34 457.608C1058.16 457.406 1057.92 457.222 1057.64 457.054C1057.37 456.886 1057.07 456.74 1056.77 456.614C1056.47 456.487 1056.18 456.385 1055.92 456.309C1055.9 456.303 1055.88 456.297 1055.86 456.292C1055.85 456.289 1055.83 456.286 1055.82 456.283C1055.82 456.278 1055.81 456.272 1055.8 456.266C1055.79 456.258 1055.78 456.245 1055.77 456.227C1055.76 456.218 1055.76 456.205 1055.74 456.191C1055.73 456.172 1055.71 456.151 1055.68 456.128C1055.65 456.106 1055.63 456.093 1055.6 456.092C1055.58 456.09 1055.56 456.114 1055.56 456.162C1055.56 456.165 1055.56 456.168 1055.56 456.172C1055.56 456.191 1055.56 456.202 1055.55 456.205C1055.55 456.209 1055.54 456.208 1055.53 456.203C1055.52 456.201 1055.51 456.199 1055.5 456.196C1055.04 456.091 1054.73 456.081 1054.58 456.167C1054.42 456.252 1054.4 456.398 1054.51 456.604C1054.61 456.811 1054.82 457.044 1055.13 457.305C1055.13 457.307 1055.13 457.309 1055.14 457.313C1055.16 457.33 1055.17 457.342 1055.17 457.346C1055.17 457.351 1055.15 457.351 1055.11 457.344C1054.98 457.323 1054.85 457.321 1054.71 457.337C1054.57 457.353 1054.45 457.4 1054.36 457.479C1054.27 457.557 1054.23 457.678 1054.25 457.842C1054.29 458.098 1054.45 458.356 1054.71 458.616C1054.97 458.874 1055.28 459.117 1055.64 459.346C1056 459.576 1056.36 459.775 1056.71 459.943C1057.06 460.112 1057.35 460.235 1057.59 460.313C1057.62 460.321 1057.64 460.317 1057.65 460.301C1057.67 460.285 1057.67 460.264 1057.67 460.238C1057.67 460.214 1057.67 460.193 1057.65 460.175C1057.61 460.133 1057.56 460.1 1057.5 460.076C1057.48 460.066 1057.46 460.065 1057.44 460.071C1057.42 460.079 1057.4 460.091 1057.4 460.107C1057.19 460.028 1056.92 459.908 1056.61 459.747C1056.29 459.586 1055.96 459.398 1055.64 459.184C1055.31 458.971 1055.03 458.748 1054.79 458.514C1054.56 458.279 1054.42 458.048 1054.38 457.823C1054.36 457.702 1054.39 457.615 1054.46 457.562C1054.53 457.507 1054.62 457.475 1054.73 457.467C1054.84 457.458 1054.95 457.461 1055.07 457.477C1055.18 457.492 1055.27 457.508 1055.34 457.528C1055.38 457.537 1055.41 457.548 1055.44 457.559C1055.45 457.571 1055.48 457.586 1055.5 457.605C1055.51 457.613 1055.52 457.623 1055.54 457.634C1055.56 457.649 1055.62 457.688 1055.71 457.753C1055.81 457.817 1055.91 457.882 1056.03 457.946C1056.14 458.009 1056.24 458.048 1056.32 458.062C1056.39 458.075 1056.42 458.038 1056.41 457.951C1056.39 457.901 1056.33 457.843 1056.22 457.777C1056.11 457.709 1056 457.647 1055.87 457.591C1055.75 457.533 1055.66 457.492 1055.59 457.47C1055.58 457.467 1055.57 457.463 1055.56 457.46C1055.54 457.449 1055.51 457.438 1055.49 457.429C1055.47 457.419 1055.45 457.404 1055.42 457.383C1055.21 457.23 1055.03 457.073 1054.88 456.911C1054.72 456.749 1054.62 456.607 1054.58 456.486C1054.54 456.363 1054.59 456.284 1054.74 456.247C1054.88 456.209 1055.14 456.239 1055.53 456.336C1055.54 456.339 1055.56 456.342 1055.57 456.346C1055.6 456.35 1055.62 456.358 1055.64 456.367C1055.66 456.377 1055.67 456.396 1055.69 456.423C1055.9 456.816 1056.14 457.199 1056.39 457.571C1056.59 457.871 1056.78 458.176 1056.96 458.488C1056.97 458.518 1056.98 458.545 1056.99 458.567C1056.99 458.59 1057 458.61 1057 458.628C1057 458.641 1057 458.654 1057 458.666C1057 458.678 1057.01 458.689 1057.02 458.7C1057.03 458.715 1057.05 458.731 1057.07 458.749C1057.09 458.766 1057.11 458.779 1057.14 458.787C1057.16 458.794 1057.19 458.789 1057.21 458.773C1057.22 458.758 1057.23 458.743 1057.23 458.727C1057.22 458.711 1057.22 458.695 1057.21 458.679C1056.76 457.911 1056.32 457.187 1055.87 456.505C1055.86 456.478 1055.85 456.458 1055.85 456.447C1055.86 456.434 1055.88 456.434 1055.92 456.447C1056.39 456.583 1056.83 456.764 1057.26 456.991C1057.34 457.035 1057.46 457.107 1057.62 457.209C1057.78 457.309 1057.94 457.422 1058.09 457.55C1058.24 457.675 1058.34 457.798 1058.4 457.917C1058.45 458.036 1058.41 458.136 1058.27 458.217C1058.24 458.233 1058.23 458.249 1058.23 458.265C1058.23 458.28 1058.24 458.29 1058.25 458.297C1058.27 458.301 1058.29 458.297 1058.32 458.284C1058.48 458.193 1058.55 458.087 1058.53 457.968C1058.52 457.849 1058.46 457.728 1058.34 457.608Z" fill="white"/>
</g>
</g>
<defs>
<clipPath id="clip0_31_296">
<rect width="1512" height="576" fill="white"/>
</clipPath>
</defs>
</svg>
